<?xml version="1.0" standalone="no"?>
<!DOCTYPE svg PUBLIC "-//W3C//DTD SVG 1.1//EN" "http://www.w3.org/Graphics/SVG/1.1/DTD/svg11.dtd" >
<svg xmlns="http://www.w3.org/2000/svg">
<metadata>
This is a custom SVG webfont generated by Font Squirrel.
Copyright   :  1991 2002 Adobe Systems Incorporated All rights reserved  1981 2002 Heidelberger Druckmaschinen AG All rights reserved
Designer    : Jackson Burke
Foundry URL : httpwwwadobecomtype
</metadata>
<defs>
<font id="TradeGothicLTStdBoldExtended" horiz-adv-x="1366" >
<font-face units-per-em="2048" ascent="1489" descent="-559" />
<missing-glyph horiz-adv-x="739" />
<glyph unicode=" "  horiz-adv-x="739" />
<glyph unicode="&#x09;" horiz-adv-x="739" />
<glyph unicode="&#xa0;" horiz-adv-x="739" />
<glyph unicode="!" horiz-adv-x="681" d="M193 1489h296l-55 -1016h-186zM205 0v291h272v-291h-272z" />
<glyph unicode="&#x22;" horiz-adv-x="909" d="M147 883v606h197v-606h-197zM565 883v606h197v-606h-197z" />
<glyph unicode="#" horiz-adv-x="1478" d="M184 444v177h207l33 247h-184v176h206l60 445h180l-59 -445h303l59 445h180l-59 -445h184v-176h-207l-32 -247h184v-177h-207l-59 -444h-180l59 444h-303l-60 -444h-180l60 444h-185zM571 621h303l33 247h-303z" />
<glyph unicode="$" horiz-adv-x="1478" d="M53 270l185 183q143 -205 405 -248v430l-147 37q-104 27 -169 52.5t-126.5 69.5t-90 113.5t-28.5 169.5q0 217 167 333t394 116v174h197v-174q188 -10 339.5 -99.5t211.5 -177.5l-179 -182q-49 76 -152.5 141.5t-219.5 75.5v-412l168 -38q213 -49 316 -141 q101 -89 101 -254q0 -129 -51 -221.5t-138 -145t-185.5 -79t-210.5 -30.5v-250h-197v250q-211 14 -367.5 105t-222.5 202zM336 1098q0 -47 29.5 -82t76.5 -54.5t93.5 -30.5t91.5 -20q12 -2 16 -2v375h-45q-100 -4 -184 -49q-78 -42 -79 -125q1 -6 1 -12zM840 205 q332 25 331 205q0 115 -206 159l-125 29v-393z" />
<glyph unicode="%" horiz-adv-x="2048" d="M135 1149q0 158 110.5 267.5t266.5 109.5t266.5 -109.5t110.5 -267.5t-110.5 -267.5t-266.5 -109.5t-266.5 109.5t-110.5 267.5zM340 1149q0 -72 51 -122t121 -50t121 50t51 122t-51 122t-121 50t-121 -50t-51 -122zM492 -63l880 1589h180l-880 -1589h-180zM1159 340 q0 156 110.5 266.5t266.5 110.5t266.5 -110.5t110.5 -266.5t-110.5 -266.5t-266.5 -110.5t-266.5 110.5t-110.5 266.5zM1364 340q0 -70 51 -121t121 -51t121 51t51 121t-51 121t-121 51t-121 -51t-51 -121z" />
<glyph unicode="&#x26;" horiz-adv-x="1933" d="M55 426q0 166 120 284.5t292 170.5l63 18l-34 47q-78 104 -78 232q0 164 127 256t301 92q188 0 321 -89t133 -266q0 -272 -317 -389l-22 -8l18 -18q176 -180 283 -269l47 -38l18 14q141 111 272 323l17 27l227 -119l-16 -26q-109 -178 -258 -328l-49 -45q113 -82 305 -82 h53v-250h-51q-160 0 -300.5 53.5t-232.5 122.5l-69 -45q-143 -72 -266 -101.5t-281 -29.5q-285 0 -454 122t-169 341zM340 432q0 -119 105.5 -173t236.5 -54q143 0 340 71l65 29l-65 55q-125 104 -289 281l-55 61l-57 -20q-281 -90 -281 -250zM668 1178q0 -72 98 -185 l37 -35l49 15q199 66 199 211q0 82 -54.5 128t-140.5 46t-137 -48t-51 -132z" />
<glyph unicode="'" horiz-adv-x="569" d="M186 883v606h197v-606h-197z" />
<glyph unicode="(" horiz-adv-x="681" d="M35 684q0 242 95 462t253 380h279q-369 -375 -369 -842t369 -842h-279q-158 160 -253 380t-95 462z" />
<glyph unicode=")" horiz-adv-x="681" d="M20 -158q369 375 369 842t-369 842h279q158 -160 253 -380t95 -462t-95 -462t-253 -380h-279z" />
<glyph unicode="*" horiz-adv-x="1024" d="M113 1147l63 207l273 -135l-56 307h232l-62 -307l279 147l69 -219l-311 -41l238 -215l-191 -139l-139 282l-119 -284l-194 139l219 217z" />
<glyph unicode="+" horiz-adv-x="1228" d="M96 420v196h420v420h197v-420h420v-196h-420v-420h-197v420h-420z" />
<glyph unicode="," horiz-adv-x="739" d="M233 0v291h273v-301l-129 -305h-135l110 315h-119z" />
<glyph unicode="-" horiz-adv-x="681" d="M90 471v217h502v-217h-502z" />
<glyph unicode="." horiz-adv-x="739" d="M233 0v291h273v-291h-273z" />
<glyph unicode="/" horiz-adv-x="569" d="M-59 -37l471 1563h217l-471 -1563h-217z" />
<glyph unicode="0" horiz-adv-x="1478" d="M68 743q0 227 66.5 398.5t221 278t385.5 106.5q174 0 306.5 -60.5t210 -168t115.5 -247t38 -307.5q0 -383 -180 -581.5t-489.5 -198.5t-491.5 198.5t-182 581.5zM340 743q0 -268 109.5 -407t292 -139t290 139t107.5 407q0 109 -17.5 199t-59.5 173t-123 130t-197.5 47 t-198.5 -47t-124 -130t-60.5 -174.5t-18.5 -197.5z" />
<glyph unicode="1" horiz-adv-x="1478" d="M356 1313q131 18 231.5 65t182.5 148h152v-1526h-258v1145h-308v168z" />
<glyph unicode="2" horiz-adv-x="1478" d="M45 205l756 459q78 47 120 75.5t93 74.5t75.5 97.5t24.5 115.5q0 265 -383 265q-319 0 -395 -288h-273q0 84 38 171t113 167.5t209 132t306 51.5q135 0 248 -25.5t208 -82t148 -158t53 -240.5q0 -305 -368 -512l-463 -262v-4h813v-242h-1323v205z" />
<glyph unicode="3" horiz-adv-x="1478" d="M57 436h273q20 -98 114.5 -168.5t264.5 -70.5q182 0 295 64q115 66 114 206q0 81 -78 139q-80 59 -260 60h-278v233h217q180 0 271 43t91 154q0 197 -348 196q-109 0 -190.5 -22.5t-120.5 -55t-56.5 -61.5t-17.5 -49h-258q0 39 11.5 84t52.5 107.5t106.5 111.5t187 84 t281.5 35q299 0 462 -114t163 -308q0 -70 -22.5 -128t-58.5 -94t-66.5 -55.5t-63.5 -33.5q248 -106 248 -361q0 -203 -172 -336t-486 -133q-162 0 -286.5 35t-195.5 86t-116 119.5t-60.5 123t-17.5 109.5z" />
<glyph unicode="4" horiz-adv-x="1478" d="M35 315v226l903 948h285v-948h190v-226h-190v-315h-258v315h-930zM326 541h639v669z" />
<glyph unicode="5" horiz-adv-x="1478" d="M66 418h278q0 -25 19.5 -59.5t60.5 -72.5t123 -63.5t186 -25.5q184 0 292 86t108 231q0 137 -111 219t-281 82q-244 0 -366 -141h-254l24 815h1182v-234h-950l-21 -323q174 109 416 108q289 0 461 -136t172 -390q0 -240 -163 -395.5t-513 -155.5q-170 0 -299 41 t-195.5 95.5t-107.5 125t-51 114.5t-10 79z" />
<glyph unicode="6" horiz-adv-x="1478" d="M68 721q0 113 22.5 221.5t75.5 216t134 187t209 130t288 50.5q147 0 264 -42t183.5 -107.5t102 -134t39.5 -132.5h-272q-6 59 -93 120.5t-222 61.5q-184 0 -312.5 -118.5t-134.5 -358.5q203 152 453 152q289 0 447.5 -141.5t158.5 -346.5q0 -229 -170 -372.5t-459 -143.5 q-145 0 -272 46t-227.5 135t-157.5 238t-57 339zM358 557q27 -160 136.5 -260t281.5 -100q158 0 260.5 70.5t102.5 203.5q0 121 -95.5 195.5t-259.5 74.5q-72 0 -134 -13t-109 -38.5t-77 -45t-65 -50.5t-41 -37z" />
<glyph unicode="7" horiz-adv-x="1478" d="M92 1255v234h1294v-131l-751 -1358h-318l725 1255h-950z" />
<glyph unicode="8" horiz-adv-x="1478" d="M72 410q0 150 87 249t179 123v4q-231 96 -232 328q0 182 161 297t472 115q313 0 474 -119t161 -293q0 -236 -233 -328v-4q92 -25 179 -124t87 -248q0 -156 -92 -258.5t-236.5 -145.5t-339 -43t-339 43t-236.5 145.5t-92 258.5zM344 434q0 -238 395.5 -237.5t395.5 237.5 q0 227 -395.5 227t-395.5 -227zM371 1092q0 -205 368 -205q371 0 371 205q0 201 -371 200q-368 1 -368 -200z" />
<glyph unicode="9" horiz-adv-x="1478" d="M68 1010q0 229 170 372.5t458 143.5q145 0 272.5 -46t227.5 -135.5t157.5 -238t57.5 -338.5q0 -113 -22.5 -221.5t-75.5 -216t-134 -187.5t-209 -130t-288 -50q-147 0 -264 42t-183.5 107.5t-102.5 134t-40 132.5h273q6 -59 93 -120.5t222 -61.5q184 0 312 118.5 t134 358.5q-203 -152 -452 -152q-289 0 -447.5 141.5t-158.5 346.5zM340 1018q0 -121 95 -195.5t259 -74.5q72 0 134.5 13t109.5 38.5t76.5 45t64.5 50.5t41 37q-27 160 -136.5 260t-281.5 100q-158 0 -260 -70.5t-102 -203.5z" />
<glyph unicode=":" horiz-adv-x="739" d="M233 0v291h273v-291h-273zM233 618v291h273v-291h-273z" />
<glyph unicode=";" horiz-adv-x="739" d="M233 0v291h273v-301l-129 -305h-135l110 315h-119zM233 618v291h273v-291h-273z" />
<glyph unicode="&#x3c;" horiz-adv-x="1228" d="M96 426v176l1037 451v-205l-758 -334l758 -334v-205z" />
<glyph unicode="=" horiz-adv-x="1228" d="M96 193v196h1037v-196h-1037zM96 647v197h1037v-197h-1037z" />
<glyph unicode="&#x3e;" horiz-adv-x="1228" d="M96 -25v205l758 334l-758 334v205l1037 -451v-176z" />
<glyph unicode="?" horiz-adv-x="1251" d="M12 1176q10 27 26.5 57.5t64 86.5t107.5 98t163.5 75t228.5 33q563 0 588 -406v-12q0 -89 -57 -180q-61 -98 -197 -180l-52 -32l-48 -29q-12 -7 -39 -24.5t-36 -27.5t-25.5 -26.5t-21.5 -32t-10.5 -35t-5.5 -41.5v-31h-229v72q0 92 33 161.5t121 131.5l114 77q8 4 30 20 l29 20l25 19l24.5 18t20 18.5t18.5 21.5l13 21q8 12 11 23t6.5 25.5t3.5 30.5q0 180 -291 181q-293 0 -385 -226q-2 -6 -2 -8zM446 0v291h273v-291h-273z" />
<glyph unicode="@" horiz-adv-x="1638" d="M57 745q0 342 236.5 561.5t574.5 219.5q291 0 502 -179.5t211 -461.5q0 -145 -55.5 -266t-138 -191t-165.5 -107.5t-149 -37.5q-55 0 -92 30.5t-39 89.5h-6q-33 -53 -101.5 -86.5t-140.5 -33.5q-131 0 -224 102t-93 244q0 213 131 377.5t336 164.5q164 0 239 -149l37 121 h158l-123 -486q-31 -119 -31 -166t35 -47q100 0 183 122t83 284q0 248 -162.5 384t-416.5 136q-258 0 -433 -178t-175 -446.5t176 -447.5t432 -179q326 0 491 192h164q-104 -166 -274 -257t-371 -91q-330 0 -564.5 220t-234.5 562zM582 653q0 -84 46 -137t117 -53 q113 0 192 112.5t79 235.5q0 80 -40 130t-120 50q-115 0 -194.5 -108.5t-79.5 -229.5z" />
<glyph unicode="A" horiz-adv-x="1820" d="M16 0l734 1489h331l723 -1489h-307l-156 342h-858l-157 -342h-310zM604 592h623l-312 663z" />
<glyph unicode="B" horiz-adv-x="1820" d="M176 1489h897q584 0 584 -381q0 -88 -29 -153.5t-60.5 -94.5t-82.5 -61q90 -39 159.5 -135.5t69.5 -231.5q0 -209 -155.5 -320.5t-430.5 -111.5h-952v1489zM467 242h633q156 0 239.5 45t83.5 168q0 111 -83 157.5t-240 46.5h-633v-417zM467 901h625q145 0 209.5 40 t64.5 132q0 94 -64.5 134t-209.5 40h-625v-346z" />
<glyph unicode="C" horiz-adv-x="1820" d="M68 768q0 342 219 550t645 208q133 0 245.5 -23.5t188.5 -58.5t137.5 -86t96 -95t62.5 -98.5t37 -83t17 -59.5q2 -6 2 -8h-291q-8 27 -34.5 63.5t-78.5 84.5t-148.5 81t-217.5 33q-295 0 -439 -147.5t-144 -393.5q0 -248 158.5 -385t408.5 -137q227 0 358 102.5 t160 214.5h291q-10 -66 -30.5 -125t-79 -145t-141.5 -146.5t-234.5 -105.5t-346.5 -45q-371 0 -606 207t-235 598z" />
<glyph unicode="D" horiz-adv-x="1820" d="M176 0v1489h717q182 0 331.5 -40t267.5 -125t183.5 -230.5t65.5 -339.5q0 -369 -226.5 -561.5t-609.5 -192.5h-729zM467 250h295q369 0 528.5 117.5t159.5 382.5q0 270 -158.5 379.5t-529.5 109.5h-295v-989z" />
<glyph unicode="E" horiz-adv-x="1593" d="M176 0v1489h1335v-250h-1044v-346h899v-250h-899v-393h1069v-250h-1360z" />
<glyph unicode="F" horiz-adv-x="1593" d="M176 0v1489h1370v-250h-1079v-346h928v-250h-928v-643h-291z" />
<glyph unicode="G" horiz-adv-x="1820" d="M80 741q0 154 48 291t144.5 250t261 178.5t379.5 65.5q135 0 259 -26.5t236 -83t189.5 -157t104.5 -235.5h-297q-16 35 -28.5 56.5t-49.5 63.5t-81 66.5t-123 45t-175 20.5q-166 0 -285.5 -51t-179 -134t-86 -166t-26.5 -171q0 -256 153.5 -394.5t399.5 -138.5 q213 0 337.5 76t178.5 233h-522v234h794v-780h-176l-57 153q-78 -51 -133.5 -80.5t-173 -61.5t-250.5 -32q-121 0 -235 23.5t-226.5 81t-195.5 143.5t-134 223t-51 307z" />
<glyph unicode="H" horiz-adv-x="1933" d="M176 0v1489h291v-590h999v590h291v-1489h-291v641h-999v-641h-291z" />
<glyph unicode="I" horiz-adv-x="679" d="M195 0v1489h290v-1489h-290z" />
<glyph unicode="J" horiz-adv-x="1251" d="M45 16v273q184 -47 334 -47q242 -2 325.5 79.5t79.5 260.5v907h291v-924q-2 -319 -161.5 -450t-499.5 -131q-242 -1 -369 32z" />
<glyph unicode="K" horiz-adv-x="1820" d="M176 0v1489h291v-694l825 694h414l-711 -590l783 -899h-381l-613 727l-317 -264v-463h-291z" />
<glyph unicode="L" horiz-adv-x="1593" d="M176 0v1489h291v-1231h1079v-258h-1370z" />
<glyph unicode="M" horiz-adv-x="2048" d="M168 0v1489h391l465 -1104l473 1104h383v-1489h-258v1128h-4l-477 -1128h-232l-479 1128h-4v-1128h-258z" />
<glyph unicode="N" horiz-adv-x="1933" d="M176 0v1489h307l996 -1075v1075h278v-1489h-266l-1036 1114v-1114h-279z" />
<glyph unicode="O" horiz-adv-x="1933" d="M80 733q0 160 48 297t148.5 251t276.5 179.5t413.5 65.5t413.5 -65.5t276.5 -179.5t148.5 -251t48 -297q0 -100 -23.5 -199.5t-87 -205t-158.5 -184t-255 -130t-362.5 -51.5t-362.5 51.5t-255 130t-158.5 184t-87 205t-23.5 199.5zM371 750q0 -123 35.5 -218.5t93 -154 t137.5 -97t161 -53t169 -14.5t169 14.5t160.5 53t137 97t93.5 154t36 218.5q0 258 -164 392t-432.5 134t-432 -134t-163.5 -392z" />
<glyph unicode="P" horiz-adv-x="1705" d="M176 0v1489h830q57 0 89.5 -1t95 -4t100.5 -11.5t94.5 -23.5t92 -37.5t75.5 -57.5t63.5 -80t39 -106.5t15.5 -135.5q0 -94 -25.5 -167.5t-60.5 -121t-98.5 -81t-112.5 -50t-129 -24.5t-122 -9t-117 -1h-539v-578h-291zM467 827h602q59 0 97 3.5t83 14.5t71 32.5t43 61.5 t17 95q0 68 -23.5 112t-71.5 62.5t-95 24.5t-121 6h-602v-412z" />
<glyph unicode="Q" horiz-adv-x="1933" d="M80 733q0 160 48 297t148.5 251t276.5 179.5t413.5 65.5t413.5 -65.5t276.5 -179.5t148.5 -251t48 -297t-65.5 -318.5t-208.5 -269.5q72 -63 128 -82.5t171 -21.5v-250q-86 0 -135 5t-120 25.5t-135.5 71t-133.5 132.5q-160 -61 -387 -62q-203 0 -363 51.5t-255 130 t-158.5 184t-87 205t-23.5 199.5zM371 750q0 -123 35.5 -218.5t93 -154t137.5 -97t161 -53t169 -14.5q113 0 213 27q-29 68 -65 104.5t-105 58.5v250q84 -6 151.5 -35.5t114.5 -79t73.5 -89t55.5 -97.5q158 141 158 398q0 258 -164 392t-432.5 134t-432 -134t-163.5 -392z " />
<glyph unicode="R" horiz-adv-x="1820" d="M176 1489h895q113 0 199 -11.5t166 -41t131 -78.5t80.5 -128t29.5 -186q0 -197 -120.5 -312.5t-294.5 -125.5l456 -606h-358l-432 586h-461v-586h-291v1489zM467 827h561q190 0 274 43t84 168q0 123 -83.5 166t-274.5 43h-561v-420z" />
<glyph unicode="S" horiz-adv-x="1705" d="M72 391l280 88q25 -51 56.5 -89t92 -83t165 -69.5t243.5 -24.5q184 0 309 56.5t125 150.5q0 145 -323 186l-356 49q-258 35 -397.5 144.5t-139.5 279.5q0 92 34 165t83 119t121.5 79t132 49t136.5 24.5t110.5 9.5t76.5 1q131 0 243 -17.5t187.5 -43t138 -65.5t96.5 -73 t63.5 -78t38.5 -67l22 -56l-275 -90q-41 115 -158.5 181.5t-363.5 66.5q-104 0 -190 -17.5t-145.5 -60.5t-59.5 -108q0 -59 66.5 -101.5t267.5 -66.5l352 -53q530 -82 530 -431q0 -127 -57 -223t-160.5 -151.5t-232.5 -82t-283 -26.5q-180 0 -326.5 35t-231.5 83 t-147.5 112.5t-86 108.5t-37.5 89z" />
<glyph unicode="T" horiz-adv-x="1703" d="M41 1239v250h1622v-250h-666v-1239h-290v1239h-666z" />
<glyph unicode="U" horiz-adv-x="1933" d="M176 639v850h291v-830q0 -100 21.5 -174.5t73.5 -139t153.5 -98.5t251 -34t251 34t153.5 98.5t73.5 139t21.5 174.5v830h291v-850q0 -676 -790.5 -676t-790.5 676z" />
<glyph unicode="V" horiz-adv-x="1820" d="M35 1489h311l559 -1188l570 1188h311l-729 -1489h-303z" />
<glyph unicode="W" horiz-adv-x="2084" d="M39 1489h291l286 -1024h5l284 1024h279l289 -1022h4l284 1022h285l-434 -1489h-279l-282 1057h-4l-285 -1057h-285z" />
<glyph unicode="X" horiz-adv-x="1705" d="M4 0l674 770l-623 719h371l432 -510l430 510h369l-625 -719l670 -770h-373l-471 561l-475 -561h-379z" />
<glyph unicode="Y" horiz-adv-x="1818" d="M37 1489h356l516 -631l514 631h359l-727 -893v-596h-291v596z" />
<glyph unicode="Z" horiz-adv-x="1593" d="M49 0v143l1041 1096h-988v250h1418v-164l-1012 -1075h1036v-250h-1495z" />
<glyph unicode="[" horiz-adv-x="681" d="M86 -127v1616h555v-141h-322v-1334h316v-141h-549z" />
<glyph unicode="\" horiz-adv-x="569" d="M-59 1526h217l471 -1563h-217z" />
<glyph unicode="]" horiz-adv-x="681" d="M41 14h321v1334h-315v141h549v-1616h-555v141z" />
<glyph unicode="^" horiz-adv-x="1228" d="M123 662l407 827h168l408 -827h-205l-287 585l-286 -585h-205z" />
<glyph unicode="_" horiz-adv-x="1024" d="M0 -154h1024v-102h-1024v102z" />
<glyph unicode="`" horiz-adv-x="569" d="M-45 1552h285l223 -292h-180z" />
<glyph unicode="a" d="M66 295q0 90 40.5 159.5t117.5 115.5t160 78t197.5 50.5t198.5 26.5t193 14v49q0 143 -285 144q-262 0 -297 -146h-264q72 350 559 351q111 0 197 -15.5t142 -38t96 -60.5t59.5 -69.5t31 -79t13.5 -76t2 -71.5v-549q0 -139 20 -178h-260q-14 66 -14 111 q-256 -147 -481 -148q-63 0 -129 14.5t-136.5 49t-115.5 103.5t-45 165zM344 307q0 -67 45 -106q47 -41 139 -41q207 0 445 143v252q-201 -8 -395 -55q-121 -29 -177 -72q-57 -45 -57 -121z" />
<glyph unicode="b" horiz-adv-x="1478" d="M147 0v1489h254v-504q72 51 114 76.5t126 50.5t182 25q268 0 429 -163t161 -417q0 -270 -168 -432t-411 -162q-264 0 -437 178v-141h-250zM401 340q72 -55 107 -78.5t111.5 -52.5t156.5 -29q158 0 268.5 98.5t110.5 270.5q0 176 -114.5 273.5t-272.5 97.5q-84 0 -162 -29 t-112.5 -52.5t-92.5 -70.5v-428z" />
<glyph unicode="c" horiz-adv-x="1363" d="M66 578q0 227 168.5 392t449.5 167q143 0 259 -38t184.5 -100.5t105.5 -133t45 -144.5h-254q-20 76 -106.5 137.5t-217.5 61.5q-172 0 -274 -105.5t-102 -247.5q0 -168 91 -277.5t265 -109.5q152 0 243 64.5t109 148.5h266q-14 -66 -52 -133t-104.5 -138t-179 -115 t-255.5 -44q-285 0 -463 151t-178 464z" />
<glyph unicode="d" horiz-adv-x="1478" d="M66 557q0 254 160.5 417t428.5 163q98 0 182.5 -25t126.5 -50.5t113 -76.5v504h254v-1489h-250v141q-184 -178 -436 -178q-244 0 -411.5 162t-167.5 432zM324 549q0 -172 110.5 -270.5t267.5 -98.5q80 0 157 29t112 52.5t106 78.5v428q-57 47 -92 70.5t-112.5 52.5 t-161.5 29q-158 0 -272.5 -97.5t-114.5 -273.5z" />
<glyph unicode="e" d="M72 553q0 248 159.5 416t450.5 168q303 -2 457.5 -177.5t154.5 -480.5h-964q43 -299 362 -311q115 0 195 46t108 116h279q-8 -41 -42 -96.5t-97.5 -120t-177 -107.5t-257.5 -43q-291 0 -459.5 164t-168.5 426zM338 676h686q-53 256 -348 256q-277 0 -338 -256z" />
<glyph unicode="f" horiz-adv-x="1024" d="M37 846v217h244v127q0 336 432 336q98 0 274 -33v-217q-127 29 -223 33h-20q-210 0 -209 -170v-76h395v-217h-395v-846h-254v846h-244z" />
<glyph unicode="g" d="M39 -133q0 31 8 55.5t27.5 42t34 28.5t49.5 20.5t48 12.5t54 11v4q-76 6 -121 48t-45 122q0 78 60.5 137.5t132.5 69.5v4q-182 100 -183 315q0 117 49.5 199t135.5 124t179 59.5t204 17.5q231 0 381 -101q113 119 231 119h41v-233q-65 17 -87 16h-5q-41 0 -82 -20 q51 -70 51 -183q0 -209 -157.5 -307t-399.5 -98q-139 0 -231 35q-70 -45 -70 -89q0 -23 14.5 -35t69.5 -20t162 -8h346q391 -12 391 -252q0 -94 -63.5 -162.5t-171 -105.5t-226 -53.5t-254.5 -16.5q-254 0 -413.5 58.5t-159.5 185.5zM317 -94q0 -63 75 -82t245 -19 q412 0 412 111q0 53 -50 62q-40 8 -199 8h-77h-260q-55 0 -100.5 -18.5t-45.5 -61.5zM354 733q0 -117 85 -166t208 -49q119 0 212 53.5t93 163.5q0 113 -91 163t-212 50q-123 0 -209 -50t-86 -165z" />
<glyph unicode="h" d="M137 0v1489h254v-526q160 174 408 174q430 0 430 -432v-705h-254v610q0 164 -54.5 237t-181.5 73q-94 0 -166.5 -27t-107.5 -56.5t-74 -78.5v-758h-254z" />
<glyph unicode="i" horiz-adv-x="569" d="M158 0v1100h254v-1100h-254zM158 1300v226h254v-226h-254z" />
<glyph unicode="j" horiz-adv-x="569" d="M-39 -131q41 -12 82 -12q115 0 115 163v1080h254v-1155q0 -94 -33 -162t-85 -100.5t-101.5 -46t-98.5 -13.5q-70 0 -133 19v227zM158 1300v226h254v-226h-254z" />
<glyph unicode="k" d="M137 0v1489h254v-842l557 453h365l-469 -373l497 -727h-305l-385 571l-260 -209v-362h-254z" />
<glyph unicode="l" horiz-adv-x="569" d="M158 0v1489h254v-1489h-254z" />
<glyph unicode="m" horiz-adv-x="2048" d="M129 0v1100h250v-125l27 22l30.5 28t33.5 25.5t43 27.5l45 22q30 14 56.5 20t62.5 11.5t75 5.5q102 0 181 -33t110.5 -63.5t66.5 -79.5q145 176 387 176q195 0 308.5 -87t113.5 -272v-778h-254v666q0 137 -52 195.5t-169 58.5q-143 0 -293 -140v-780h-254v666 q0 137 -52 195.5t-169 58.5q-143 0 -293 -140v-780h-254z" />
<glyph unicode="n" d="M137 0v1100h250v-137q53 51 94 81.5t127 61.5t191 31q430 0 430 -432v-705h-254v610q0 164 -54.5 237t-181.5 73q-94 0 -166.5 -27t-107.5 -56.5t-74 -78.5v-758h-254z" />
<glyph unicode="o" horiz-adv-x="1363" d="M66 551q0 115 35.5 217t107.5 186t193.5 133.5t279.5 49.5t279.5 -49.5t193.5 -133.5t107.5 -186t35.5 -217q0 -158 -53 -275.5t-143 -183t-195.5 -97.5t-224.5 -32t-224.5 32t-195.5 97.5t-143 183t-53 275.5zM324 555q0 -176 94 -275.5t264 -99.5t264 99.5t94 275.5 q0 182 -101 273.5t-257 91.5q-158 0 -258 -91.5t-100 -273.5z" />
<glyph unicode="p" horiz-adv-x="1478" d="M147 -377v1477h250v-142q184 178 426 179q268 0 429 -163t161 -417q0 -270 -168 -432t-411 -162q-104 0 -189.5 24.5t-128.5 50t-115 77.5v-492h-254zM401 340q72 -55 107 -78.5t111.5 -52.5t156.5 -29q158 0 268.5 98.5t110.5 270.5q0 176 -114.5 273.5t-272.5 97.5 q-84 0 -162 -29t-112.5 -52.5t-92.5 -70.5v-428z" />
<glyph unicode="q" horiz-adv-x="1478" d="M66 557q0 254 160.5 417t428.5 163q242 0 426 -179v142h250v-1477h-254v492q-72 -51 -114.5 -77t-127.5 -50.5t-190 -24.5q-244 0 -411.5 162t-167.5 432zM324 549q0 -172 110.5 -270.5t267.5 -98.5q80 0 157 29t112 52.5t106 78.5v428q-57 47 -92 70.5t-112.5 52.5 t-161.5 29q-158 0 -272.5 -97.5t-114.5 -273.5z" />
<glyph unicode="r" horiz-adv-x="909" d="M137 0v1100h254v-164h6q123 201 385 201q63 0 90 -4v-275q-82 20 -155 21q-92 0 -157.5 -26t-96.5 -55.5t-48.5 -78.5t-19.5 -72.5t-4 -62.5v-584h-254z" />
<glyph unicode="s" horiz-adv-x="1251" d="M55 231l215 125q117 -188 402 -188q111 0 184.5 35t73.5 102q0 59 -56.5 78.5t-275.5 50.5q-152 18 -253 53t-154.5 82t-74 99.5t-20.5 119.5q0 51 22.5 104.5t75 113t161 96.5t259.5 37q84 0 167 -14.5t202 -77t195 -168.5l-211 -117q-25 31 -43.5 50t-61.5 53 t-107.5 51.5t-146.5 17.5q-127 0 -186.5 -40t-59.5 -93q0 -31 16.5 -51.5t58.5 -34t76 -19.5t108 -16q92 -12 148 -21.5t132 -28t122 -42t89 -59t63.5 -88t20.5 -117.5q0 -92 -41 -161t-99.5 -106t-139 -59.5t-142 -28.5t-127.5 -6q-135 0 -235.5 22.5t-171 70.5t-103.5 81 t-82 94z" />
<glyph unicode="t" horiz-adv-x="909" d="M18 846v217h197v358h254v-358h383v-217h-383v-504q0 -162 178 -162q109 0 217 31v-223q-188 -25 -274 -25q-190 0 -282.5 73t-92.5 247v563h-197z" />
<glyph unicode="u" d="M137 395v705h254v-611q0 -164 54.5 -236.5t181.5 -72.5q94 0 166.5 26.5t107.5 56.5t74 79v758h254v-1100h-250v137q-47 -49 -91 -81.5t-130 -62.5t-191 -30q-430 0 -430 432z" />
<glyph unicode="v" d="M35 1100h278l371 -815l369 815h278l-524 -1100h-254z" />
<glyph unicode="w" horiz-adv-x="1933" d="M12 1100h267l288 -772l287 772h225l291 -772l293 772h258l-430 -1100h-244l-280 770l-281 -770h-240z" />
<glyph unicode="x" horiz-adv-x="1251" d="M2 0l469 563l-448 537h319l281 -357l280 357h322l-445 -537l469 -563h-319l-307 381l-301 -381h-320z" />
<glyph unicode="y" d="M29 1100h278l373 -803l373 803h278l-571 -1188q-137 -289 -459 -289q-131 0 -221 33v217q98 -25 156 -25q145 0 211.5 50.5t66.5 121.5q0 80 -45 173z" />
<glyph unicode="z" horiz-adv-x="1251" d="M63 0v158l709 725h-670v217h1065v-160l-708 -723h729v-217h-1125z" />
<glyph unicode="{" horiz-adv-x="681" d="M82 604v154q57 0 103 45t46 129v330q0 111 53.5 169t147.5 58h201v-141h-94q-90 0 -90 -138v-305q0 -184 -162 -223v-4q23 -4 45 -14.5t51 -34t47.5 -68.5t18.5 -104v-305q0 -137 90 -138h94v-141h-201q-94 0 -147.5 58.5t-53.5 168.5v330q0 84 -46 129t-103 45z" />
<glyph unicode="|" horiz-adv-x="454" d="M129 -512v2048h197v-2048h-197z" />
<glyph unicode="}" horiz-adv-x="681" d="M49 14h94q90 0 90 138v305q0 184 162 223v4q-23 4 -45 14.5t-51 34t-47.5 68.5t-18.5 104v305q0 137 -90 138h-94v141h201q94 0 147.5 -58.5t53.5 -168.5v-330q0 -84 46 -129t103 -45v-154q-57 0 -103 -45t-46 -129v-330q0 -111 -53.5 -169t-147.5 -58h-201v141z" />
<glyph unicode="~" horiz-adv-x="1228" d="M135 535q94 176 256 176q82 0 238 -70q152 -74 198 -74q18 0 35 4t32 16l27 19q11 8 26.5 25.5t21.5 25.5l21 29q15 20 18 25l86 -164q-41 -57 -70 -89t-79 -59.5t-107 -27.5q-76 0 -215.5 71.5t-229.5 71.5q-100 0 -172 -143z" />
<glyph unicode="&#xa1;" horiz-adv-x="681" d="M193 -340l55 1016h186l55 -1016h-296zM205 858v291h272v-291h-272z" />
<glyph unicode="&#xa2;" horiz-adv-x="1478" d="M115 578q0 227 169 392t449 167q41 0 90 -4l92 249h189l-105 -284q152 -53 234 -157.5t94 -219.5h-254q-31 111 -151 162l-254 -699q18 -4 61 -4q152 0 243 64.5t109 148.5h267q-14 -66 -52.5 -133t-105 -138t-179 -115t-255.5 -44q-92 0 -164 14l-96 -262h-189l115 312 q-307 148 -307 551zM373 567q0 -211 131 -317l241 670q-170 -2 -271 -108t-101 -245z" />
<glyph unicode="&#xa3;" horiz-adv-x="1478" d="M61 -37v262q68 12 110 29.5t82 60.5t56 124q13 65 13 158v48h-261v205h240q-14 115 -14 176q2 238 142 369t374 131q127 0 227 -29t161.5 -74t103.5 -107.5t60.5 -120.5t26.5 -124h-264q-35 221 -297 221t-262 -278q0 -72 14 -164h357v-205h-338l-4 -51 q-4 -49 -17.5 -133t-38.5 -150q84 -39 131.5 -57t117.5 -35q63 -15 123 -14h16q209 0 229 246h254q1 -15 0 -30q0 -37 -3 -72q-5 -48 -32 -124t-76 -129t-149.5 -93t-237.5 -40q-240 0 -500 148q-2 -2 -29.5 -28t-56 -47.5t-57.5 -31.5q-78 -31 -201 -41z" />
<glyph unicode="&#xa4;" horiz-adv-x="1478" d="M199 350l116 117q-84 127 -84 276q0 147 82 279l-114 115l145 145l115 -115q129 84 280 84q158 0 281 -84l115 115l145 -133l-119 -121q86 -133 86 -285q0 -158 -86 -278l119 -119l-145 -145l-119 118q-119 -84 -277 -83q-152 0 -276 83l-119 -118zM403 743.5 q0 -139.5 98.5 -237.5t238 -98t237.5 98t98 237.5t-98 237.5t-237.5 98t-238 -98t-98.5 -237.5z" />
<glyph unicode="&#xa5;" horiz-adv-x="1478" d="M29 1489h290l416 -631l424 631h291l-514 -711h272v-180h-352l-2 -2v-137h354v-180h-354v-279h-233v279h-355v180h355v137l-3 2h-352v180h275z" />
<glyph unicode="&#xa6;" horiz-adv-x="454" d="M129 -358v716h197v-716h-197zM129 666v716h197v-716h-197z" />
<glyph unicode="&#xa7;" horiz-adv-x="1024" d="M74 764q0 121 72.5 186.5t158.5 71.5q-100 123 -100 235q0 94 71.5 181.5t227.5 87.5q193 0 348 -176l-160 -119q-4 6 -15 19l-18 21q-6 7 -18 19l-19 20q-7 7 -20.5 15t-25 13t-25.5 8.5t-29 3.5q-43 0 -71.5 -26t-28.5 -75q2 -51 45 -104t158 -162l80 -74 q246 -229 245 -405q0 -106 -64 -176q-63 -68 -165 -68h-6q111 -129 110 -249q0 -123 -83 -216q-81 -90 -214 -90q-121 0 -208 48t-175 145l166 118q71 -131 179 -131h4q55 0 84.5 32t29.5 83q0 18 -5 35.5t-19 40.5l-25 38q-10 15 -33.5 40.5t-36.5 38.5l-42 43l-39 40 l-113 115q-127 129 -174 211t-47 162zM279 793q4 -90 200 -279q76 -72 111 -91.5t69 -19.5q33 0 53.5 24t20.5 54q0 43 -26.5 86t-104.5 127q-92 98 -145.5 139t-96.5 41q-33 0 -56 -22t-25 -59z" />
<glyph unicode="&#xa8;" horiz-adv-x="569" d="M-18 1300v226h229v-226h-229zM358 1300v226h230v-226h-230z" />
<glyph unicode="&#xa9;" horiz-adv-x="1638" d="M37 745.5q0 323.5 229.5 552t553 228.5t553 -228.5t229.5 -552t-229.5 -553t-553 -229.5t-553 229.5t-229.5 553zM219 745.5q0 -251.5 177 -432t423 -180.5t423 180.5t177 432t-177 431t-423 179.5t-423 -179.5t-177 -431zM403 750q0 207 115 338t311 131q143 0 245 -84 t122 -238h-162q-12 76 -68.5 121t-144.5 45q-123 0 -192.5 -87t-69.5 -226q0 -133 74 -224.5t194 -91.5q86 0 141.5 46t65.5 130h168q-27 -154 -128 -242.5t-238 -88.5q-193 0 -313 134t-120 337z" />
<glyph unicode="&#xaa;" horiz-adv-x="888" d="M59 1020q0 80 55.5 136t156 83t178 38t184.5 17v23q0 80 -170 80t-193 -82h-172q47 211 363 211q98 0 168.5 -18.5t105.5 -41t53.5 -61.5t21.5 -63.5t3 -61.5v-330q0 -82 16 -106h-186q-10 37 -10 65q-127 -88 -297 -88q-41 0 -84 9.5t-89 29t-75 61.5t-29 99zM250 1028 q0 -34 30 -55q32 -23 89 -23q164 0 264 76v145q-121 -6 -242 -34q-141 -31 -141 -109z" />
<glyph unicode="&#xab;" horiz-adv-x="1024" d="M37 545l246 338h249l-245 -338l245 -338h-253zM479 545l246 338h250l-246 -338l246 -338h-254z" />
<glyph unicode="&#xac;" horiz-adv-x="1228" d="M96 647v197h1037v-627h-197v430h-840z" />
<glyph unicode="&#xad;" horiz-adv-x="681" d="M90 471v217h502v-217h-502z" />
<glyph unicode="&#xae;" horiz-adv-x="1638" d="M37 745.5q0 323.5 229.5 552t553 228.5t553 -228.5t229.5 -552t-229.5 -553t-553 -229.5t-553 229.5t-229.5 553zM219 745.5q0 -251.5 177 -432t423 -180.5t423 180.5t177 432t-177 431t-423 179.5t-423 -179.5t-177 -431zM522 307v848h324q160 0 239.5 -58.5 t79.5 -189.5q0 -207 -213 -229l228 -371h-179l-213 365h-108v-365h-158zM680 793h147q90 0 135.5 24.5t45.5 102.5q0 115 -179 114h-149v-241z" />
<glyph unicode="&#xaf;" horiz-adv-x="569" d="M-27 1317v156h623v-156h-623z" />
<glyph unicode="&#xb0;" horiz-adv-x="819" d="M117 1161q0 123 85 208t207.5 85t207.5 -85t85 -208t-85 -208t-207.5 -85t-207.5 85t-85 208zM260 1161.5q0 -61.5 44 -105.5t105.5 -44t105.5 44t44 105.5t-44 105.5t-105.5 44t-105.5 -44t-44 -105.5z" />
<glyph unicode="&#xb1;" horiz-adv-x="1228" d="M96 0v197h1037v-197h-1037zM96 561v197h420v278h197v-278h420v-197h-420v-278h-197v278h-420z" />
<glyph unicode="&#xb2;" horiz-adv-x="960" d="M49 610v152l492 274q88 49 132 93.5t44 95.5q0 133 -221 133q-96 0 -161 -46t-69 -100h-205q0 117 114 215.5t341 98.5q172 0 289 -72t117 -231q-2 -102 -57.5 -171t-182.5 -137l-246 -127v-4h473v-174h-860z" />
<glyph unicode="&#xb3;" horiz-adv-x="960" d="M31 872h186q20 -117 250 -116q244 0 244 114q0 131 -209 131h-176v144h141q86 0 153.5 28.5t67.5 84t-57.5 78t-175.5 22.5q-217 0 -228 -86h-176q0 31 15.5 66.5t54.5 81.5t131 76t221 30q203 0 311.5 -68.5t108.5 -185.5q0 -78 -47 -122t-103 -63v-4q37 -10 71 -29.5 t67.5 -68.5t33.5 -115q0 -121 -114.5 -201.5t-323.5 -80.5q-109 0 -191.5 21.5t-128.5 52t-76 71.5t-39 73.5t-11 65.5z" />
<glyph unicode="&#xb4;" horiz-adv-x="569" d="M106 1260l222 292h286l-327 -292h-181z" />
<glyph unicode="&#xb5;" d="M137 -377v1477h254v-611q0 -164 54.5 -236.5t181.5 -72.5q94 0 166.5 26.5t107.5 56.5t74 79v758h254v-1100h-250v137q-170 -174 -399 -174q-119 0 -189 62v-402h-254z" />
<glyph unicode="&#xb6;" horiz-adv-x="1478" d="M127 1102q0 387 481 387h580v-1747h-205v1567h-211v-1567h-205v973q-203 0 -321.5 105.5t-118.5 281.5z" />
<glyph unicode="&#xb7;" horiz-adv-x="739" d="M188 588q0 74 54.5 128t128.5 54q72 0 127 -54t55 -128q0 -72 -55.5 -127t-126.5 -55q-74 0 -128.5 55t-54.5 127z" />
<glyph unicode="&#xb8;" horiz-adv-x="569" d="M47 -432l39 102q76 -35 141 -35q51 0 83 21.5t32 58.5q0 80 -92 80q-39 0 -82 -16l-45 37l135 184h100l-90 -123l4 -4q27 10 76 10q61 0 111.5 -43t50.5 -112q0 -102 -78 -154.5t-184.5 -52.5t-200.5 47z" />
<glyph unicode="&#xb9;" horiz-adv-x="960" d="M231 1276v123q172 20 269 127h123v-916h-205v666h-187z" />
<glyph unicode="&#xba;" horiz-adv-x="886" d="M43 1174q0 147 100.5 249.5t298.5 102.5q201 0 301.5 -102.5t100.5 -249.5q0 -182 -117 -267.5t-285 -85.5q-166 0 -282.5 85.5t-116.5 267.5zM227 1178q0 -98 57.5 -155.5t157.5 -57.5q102 0 159.5 57t57.5 156q0 100 -62 152t-154.5 52t-154 -52t-61.5 -152z" />
<glyph unicode="&#xbb;" horiz-adv-x="1024" d="M49 207l246 338l-246 338h254l242 -338l-246 -338h-250zM492 207l245 338l-245 338h253l242 -338l-246 -338h-249z" />
<glyph unicode="&#xbc;" horiz-adv-x="2217" d="M135 1276v123q172 20 268 127h123v-916h-204v666h-187zM473 -37l881 1563h180l-881 -1563h-180zM1145 184v144l588 587h225v-581h125v-150h-125v-184h-205v184h-608zM1362 334h391v393z" />
<glyph unicode="&#xbd;" horiz-adv-x="2217" d="M135 1276v123q172 20 268 127h123v-916h-204v666h-187zM410 -37l880 1563h180l-880 -1563h-180zM1210 0v152l492 274q88 49 132 93t44 95q0 133 -221 134q-96 0 -160.5 -46.5t-69.5 -99.5h-204q0 117 113.5 215t340.5 98q172 0 289 -71.5t117 -231.5 q-2 -102 -57.5 -170.5t-182.5 -136.5l-246 -127v-4h474v-174h-861z" />
<glyph unicode="&#xbe;" horiz-adv-x="2217" d="M31 872h186q20 -117 250 -116q244 0 244 114q0 131 -209 131h-176v144h141q86 0 153.5 28.5t67.5 84t-57.5 78t-175.5 22.5q-217 0 -228 -86h-176q0 31 15.5 66.5t54.5 81.5t131 76t221 30q203 0 311.5 -68.5t108.5 -185.5q0 -78 -47 -122t-103 -63v-4q37 -10 71 -29.5 t67.5 -68.5t33.5 -115q0 -121 -114.5 -201.5t-323.5 -80.5q-109 0 -191.5 21.5t-128.5 52t-76 71.5t-39 73.5t-11 65.5zM627 -37l880 1563h181l-881 -1563h-180zM1249 184v144l588 587h225v-581h125v-150h-125v-184h-204v184h-609zM1466 334h392v393z" />
<glyph unicode="&#xbf;" horiz-adv-x="1251" d="M61 29v11q0 89 58 181q61 98 196 180l53 32l48 29q12 7 38.5 24.5t36 27.5l25.5 26.5t21.5 32t10.5 35t5 41.5v31h229v-72q0 -92 -32.5 -161.5t-120.5 -131.5l-115 -77q-8 -4 -30 -20l-28 -20l-26 -19l-24.5 -18t-19.5 -18.5t-18 -21.5l-14 -21q-8 -12 -11 -23t-6 -25.5 t-3 -31.5q0 -180 291 -180q293 0 385 226q2 6 2 8l227 -101q-10 -27 -26.5 -57.5t-63.5 -86.5t-107.5 -98t-164 -75t-228.5 -33q-563 0 -588 406zM532 858v291h273v-291h-273z" />
<glyph unicode="&#xc0;" horiz-adv-x="1820" d="M16 0l734 1489h331l723 -1489h-307l-156 342h-858l-157 -342h-310zM582 1890h284l224 -293h-181zM604 592h623l-312 663z" />
<glyph unicode="&#xc1;" horiz-adv-x="1820" d="M16 0l734 1489h331l723 -1489h-307l-156 342h-858l-157 -342h-310zM604 592h623l-312 663zM733 1597l221 293h287l-328 -293h-180z" />
<glyph unicode="&#xc2;" horiz-adv-x="1820" d="M16 0l734 1489h331l723 -1489h-307l-156 342h-858l-157 -342h-310zM553 1597l244 293h227l246 -293h-211l-148 183l-153 -183h-205zM604 592h623l-312 663z" />
<glyph unicode="&#xc3;" horiz-adv-x="1820" d="M16 0l734 1489h331l723 -1489h-307l-156 342h-858l-157 -342h-310zM578 1612q0 98 55 166q61 72 158 71q45 0 135 -39q86 -41 114 -41q86 0 86 93h119q0 -16 -4 -40t-18.5 -60t-36 -64.5t-61.5 -50t-91 -21.5q-55 0 -145 39q-94 37 -123 37q-35 0 -52.5 -27.5 t-17.5 -62.5h-118zM604 592h623l-312 663z" />
<glyph unicode="&#xc4;" horiz-adv-x="1820" d="M16 0l734 1489h331l723 -1489h-307l-156 342h-858l-157 -342h-310zM604 592h623l-312 663zM608 1638v226h230v-226h-230zM985 1638v226h229v-226h-229z" />
<glyph unicode="&#xc5;" horiz-adv-x="1820" d="M16 0l734 1489h331l723 -1489h-307l-156 342h-858l-157 -342h-310zM604 592h623l-312 663zM662 1824.5q0 102.5 73.5 176.5t176 74t176 -74t73.5 -176.5t-73.5 -176t-176 -73.5t-176 73.5t-73.5 176zM791 1825q0 -51 34.5 -86t86 -35t86 35t34.5 86t-34.5 86t-86 35 t-86 -35t-34.5 -86z" />
<glyph unicode="&#xc6;" horiz-adv-x="2160" d="M16 0l856 1489h1203v-250h-721v-346h573v-250h-573v-393h749v-250h-1028v342h-547l-194 -342h-318zM670 592h405v708h-4z" />
<glyph unicode="&#xc7;" horiz-adv-x="1820" d="M68 768q0 342 219 550t645 208q133 0 245.5 -23.5t188.5 -58.5t137.5 -86t96 -95t62.5 -98.5t37 -83t17 -59.5q2 -6 2 -8h-291q-8 27 -34.5 63.5t-78.5 84.5t-148.5 81t-217.5 33q-295 0 -439 -147.5t-144 -393.5q0 -248 158.5 -385t408.5 -137q227 0 358 102.5 t160 214.5h291q-10 -63 -29.5 -120.5t-74 -141.5t-133.5 -144.5t-220 -107.5t-323 -53l-66 -86l4 -4q27 10 76 10q61 0 111.5 -43t50.5 -112q0 -102 -78 -154.5t-184.5 -52.5t-200.5 47l39 102q76 -35 141 -35q51 0 83 21.5t32 58.5q0 80 -92 80q-39 0 -82 -16l-45 37 l110 147q-170 6 -313.5 60.5t-251 151.5t-167.5 248.5t-60 344.5z" />
<glyph unicode="&#xc8;" horiz-adv-x="1593" d="M176 0v1489h1335v-250h-1044v-346h899v-250h-899v-393h1069v-250h-1360zM467 1890h285l223 -293h-180z" />
<glyph unicode="&#xc9;" horiz-adv-x="1593" d="M176 0v1489h1335v-250h-1044v-346h899v-250h-899v-393h1069v-250h-1360zM618 1597l222 293h286l-327 -293h-181z" />
<glyph unicode="&#xca;" horiz-adv-x="1593" d="M176 0v1489h1335v-250h-1044v-346h899v-250h-899v-393h1069v-250h-1360zM438 1597l244 293h227l246 -293h-211l-147 183l-154 -183h-205z" />
<glyph unicode="&#xcb;" horiz-adv-x="1593" d="M176 0v1489h1335v-250h-1044v-346h899v-250h-899v-393h1069v-250h-1360zM494 1638v226h229v-226h-229zM870 1638v226h230v-226h-230z" />
<glyph unicode="&#xcc;" horiz-adv-x="679" d="M10 1890h285l223 -293h-180zM195 0v1489h290v-1489h-290z" />
<glyph unicode="&#xcd;" horiz-adv-x="679" d="M162 1597l221 293h287l-328 -293h-180zM195 0v1489h290v-1489h-290z" />
<glyph unicode="&#xce;" horiz-adv-x="679" d="M-18 1597l243 293h228l245 -293h-211l-147 183l-154 -183h-204zM195 0v1489h290v-1489h-290z" />
<glyph unicode="&#xcf;" horiz-adv-x="679" d="M37 1638v226h229v-226h-229zM195 0v1489h290v-1489h-290zM414 1638v226h229v-226h-229z" />
<glyph unicode="&#xd0;" horiz-adv-x="1820" d="M-2 672v196h178v621h717q182 0 331.5 -40t267.5 -125t183.5 -230.5t65.5 -339.5q0 -369 -226.5 -561.5t-609.5 -192.5h-729v672h-178zM467 868h485v-196h-485v-422h295q369 0 528.5 117.5t159.5 382.5q0 270 -158.5 379.5t-529.5 109.5h-295v-371z" />
<glyph unicode="&#xd1;" horiz-adv-x="1933" d="M176 0v1489h307l996 -1075v1075h278v-1489h-266l-1036 1114v-1114h-279zM633 1612q0 98 55 166q61 72 158 71q45 0 135 -39q86 -41 115 -41q86 0 86 93h118q0 -16 -4 -40t-18 -60t-35.5 -64.5t-61.5 -50t-91 -21.5q-55 0 -146 39q-94 37 -123 37q-35 0 -52 -27.5 t-17 -62.5h-119z" />
<glyph unicode="&#xd2;" horiz-adv-x="1933" d="M80 733q0 160 48 297t148.5 251t276.5 179.5t413.5 65.5t413.5 -65.5t276.5 -179.5t148.5 -251t48 -297q0 -100 -23.5 -199.5t-87 -205t-158.5 -184t-255 -130t-362.5 -51.5t-362.5 51.5t-255 130t-158.5 184t-87 205t-23.5 199.5zM371 750q0 -123 35.5 -218.5t93 -154 t137.5 -97t161 -53t169 -14.5t169 14.5t160.5 53t137 97t93.5 154t36 218.5q0 258 -164 392t-432.5 134t-432 -134t-163.5 -392zM637 1890h285l223 -293h-180z" />
<glyph unicode="&#xd3;" horiz-adv-x="1933" d="M80 733q0 160 48 297t148.5 251t276.5 179.5t413.5 65.5t413.5 -65.5t276.5 -179.5t148.5 -251t48 -297q0 -100 -23.5 -199.5t-87 -205t-158.5 -184t-255 -130t-362.5 -51.5t-362.5 51.5t-255 130t-158.5 184t-87 205t-23.5 199.5zM371 750q0 -123 35.5 -218.5t93 -154 t137.5 -97t161 -53t169 -14.5t169 14.5t160.5 53t137 97t93.5 154t36 218.5q0 258 -164 392t-432.5 134t-432 -134t-163.5 -392zM788 1597l222 293h286l-327 -293h-181z" />
<glyph unicode="&#xd4;" horiz-adv-x="1933" d="M80 733q0 160 48 297t148.5 251t276.5 179.5t413.5 65.5t413.5 -65.5t276.5 -179.5t148.5 -251t48 -297q0 -100 -23.5 -199.5t-87 -205t-158.5 -184t-255 -130t-362.5 -51.5t-362.5 51.5t-255 130t-158.5 184t-87 205t-23.5 199.5zM371 750q0 -123 35.5 -218.5t93 -154 t137.5 -97t161 -53t169 -14.5t169 14.5t160.5 53t137 97t93.5 154t36 218.5q0 258 -164 392t-432.5 134t-432 -134t-163.5 -392zM608 1597l244 293h227l246 -293h-211l-147 183l-154 -183h-205z" />
<glyph unicode="&#xd5;" horiz-adv-x="1933" d="M80 733q0 160 48 297t148.5 251t276.5 179.5t413.5 65.5t413.5 -65.5t276.5 -179.5t148.5 -251t48 -297q0 -100 -23.5 -199.5t-87 -205t-158.5 -184t-255 -130t-362.5 -51.5t-362.5 51.5t-255 130t-158.5 184t-87 205t-23.5 199.5zM371 750q0 -123 35.5 -218.5t93 -154 t137.5 -97t161 -53t169 -14.5t169 14.5t160.5 53t137 97t93.5 154t36 218.5q0 258 -164 392t-432.5 134t-432 -134t-163.5 -392zM633 1612q0 98 55 166q61 72 158 71q45 0 135 -39q86 -41 115 -41q86 0 86 93h118q0 -16 -4 -40t-18 -60t-35.5 -64.5t-61.5 -50t-91 -21.5 q-55 0 -146 39q-94 37 -123 37q-35 0 -52 -27.5t-17 -62.5h-119z" />
<glyph unicode="&#xd6;" horiz-adv-x="1933" d="M80 733q0 160 48 297t148.5 251t276.5 179.5t413.5 65.5t413.5 -65.5t276.5 -179.5t148.5 -251t48 -297q0 -100 -23.5 -199.5t-87 -205t-158.5 -184t-255 -130t-362.5 -51.5t-362.5 51.5t-255 130t-158.5 184t-87 205t-23.5 199.5zM371 750q0 -123 35.5 -218.5t93 -154 t137.5 -97t161 -53t169 -14.5t169 14.5t160.5 53t137 97t93.5 154t36 218.5q0 258 -164 392t-432.5 134t-432 -134t-163.5 -392zM664 1638v226h229v-226h-229zM1040 1638v226h230v-226h-230z" />
<glyph unicode="&#xd7;" horiz-adv-x="1228" d="M129 178l340 340l-340 338l143 145l342 -339l342 339l144 -145l-340 -338l340 -340l-146 -145l-340 338l-340 -338z" />
<glyph unicode="&#xd8;" horiz-adv-x="1933" d="M-16 -119l311 316q-215 209 -215 536q0 160 48 297t148.5 251t276.5 179.5t414 65.5q317 0 526 -119l199 201h258l-308 -312q211 -209 211 -563q0 -100 -23.5 -199.5t-87 -205t-158.5 -184t-255 -130t-362 -51.5q-315 0 -523 123l-202 -205h-258zM371 750 q0 -223 118 -357l807 815q-141 68 -329 68q-268 0 -432 -134t-164 -392zM637 281q137 -68 330 -68q88 0 169 14.5t160.5 53t137 97t93.5 154t36 218.5q0 217 -119 346z" />
<glyph unicode="&#xd9;" horiz-adv-x="1933" d="M176 639v850h291v-830q0 -100 21.5 -174.5t73.5 -139t153.5 -98.5t251 -34t251 34t153.5 98.5t73.5 139t21.5 174.5v830h291v-850q0 -676 -790.5 -676t-790.5 676zM637 1890h285l223 -293h-180z" />
<glyph unicode="&#xda;" horiz-adv-x="1933" d="M176 639v850h291v-830q0 -100 21.5 -174.5t73.5 -139t153.5 -98.5t251 -34t251 34t153.5 98.5t73.5 139t21.5 174.5v830h291v-850q0 -676 -790.5 -676t-790.5 676zM788 1597l222 293h286l-327 -293h-181z" />
<glyph unicode="&#xdb;" horiz-adv-x="1933" d="M176 639v850h291v-830q0 -100 21.5 -174.5t73.5 -139t153.5 -98.5t251 -34t251 34t153.5 98.5t73.5 139t21.5 174.5v830h291v-850q0 -676 -790.5 -676t-790.5 676zM608 1597l244 293h227l246 -293h-211l-147 183l-154 -183h-205z" />
<glyph unicode="&#xdc;" horiz-adv-x="1933" d="M176 639v850h291v-830q0 -100 21.5 -174.5t73.5 -139t153.5 -98.5t251 -34t251 34t153.5 98.5t73.5 139t21.5 174.5v830h291v-850q0 -676 -790.5 -676t-790.5 676zM664 1638v226h229v-226h-229zM1040 1638v226h230v-226h-230z" />
<glyph unicode="&#xdd;" horiz-adv-x="1818" d="M37 1489h356l516 -631l514 631h359l-727 -893v-596h-291v596zM731 1597l221 293h287l-328 -293h-180z" />
<glyph unicode="&#xde;" horiz-adv-x="1705" d="M176 0v1489h291v-219h539q57 0 89.5 -1t95 -4t100.5 -11.5t94.5 -24t92 -38t75.5 -57t63.5 -79.5t39 -106.5t15.5 -135.5q0 -94 -25.5 -168t-60.5 -121t-98.5 -80.5t-112.5 -50t-129 -25t-122 -9.5t-117 -1h-539v-358h-291zM467 608h602q59 0 97 3t83 14.5t71 33t43 61.5 t17 95q0 68 -23.5 112t-71.5 62.5t-95 24.5t-121 6h-602v-412z" />
<glyph unicode="&#xdf;" d="M117 0v999q0 246 136 386.5t411 140.5q238 0 382 -102.5t144 -297.5q0 -78 -19.5 -133t-56.5 -88t-69.5 -49t-81.5 -31v-4q141 -12 244.5 -111.5t103.5 -289.5q0 -227 -135.5 -342t-341.5 -115q-174 0 -291 68v241q55 -35 80.5 -49t75 -28.5t104.5 -14.5q127 0 190.5 71 t63.5 175q0 84 -35 139.5t-100.5 83t-135 37.5t-163.5 10v205q63 4 91.5 7t80 15.5t76 32t45 56.5t20.5 90q0 207 -264 207q-86 0 -144.5 -24.5t-89 -57.5t-46 -96.5t-18.5 -109.5t-3 -128v-893h-254z" />
<glyph unicode="&#xe0;" d="M66 295q0 90 40.5 159.5t117.5 115.5t160 78t197.5 50.5t198.5 26.5t193 14v49q0 143 -285 144q-262 0 -297 -146h-264q72 350 559 351q111 0 197 -15.5t142 -38t96 -60.5t59.5 -69.5t31 -79t13.5 -76t2 -71.5v-549q0 -139 20 -178h-260q-14 66 -14 111 q-256 -147 -481 -148q-63 0 -129 14.5t-136.5 49t-115.5 103.5t-45 165zM344 307q0 -67 45 -106q47 -41 139 -41q207 0 445 143v252q-201 -8 -395 -55q-121 -29 -177 -72q-57 -45 -57 -121zM354 1552h285l223 -292h-180z" />
<glyph unicode="&#xe1;" d="M66 295q0 90 40.5 159.5t117.5 115.5t160 78t197.5 50.5t198.5 26.5t193 14v49q0 143 -285 144q-262 0 -297 -146h-264q72 350 559 351q111 0 197 -15.5t142 -38t96 -60.5t59.5 -69.5t31 -79t13.5 -76t2 -71.5v-549q0 -139 20 -178h-260q-14 66 -14 111 q-256 -147 -481 -148q-63 0 -129 14.5t-136.5 49t-115.5 103.5t-45 165zM344 307q0 -67 45 -106q47 -41 139 -41q207 0 445 143v252q-201 -8 -395 -55q-121 -29 -177 -72q-57 -45 -57 -121zM506 1260l221 292h287l-328 -292h-180z" />
<glyph unicode="&#xe2;" d="M66 295q0 90 40.5 159.5t117.5 115.5t160 78t197.5 50.5t198.5 26.5t193 14v49q0 143 -285 144q-262 0 -297 -146h-264q72 350 559 351q111 0 197 -15.5t142 -38t96 -60.5t59.5 -69.5t31 -79t13.5 -76t2 -71.5v-549q0 -139 20 -178h-260q-14 66 -14 111 q-256 -147 -481 -148q-63 0 -129 14.5t-136.5 49t-115.5 103.5t-45 165zM326 1260l243 292h228l245 -292h-211l-147 182l-154 -182h-204zM344 307q0 -67 45 -106q47 -41 139 -41q207 0 445 143v252q-201 -8 -395 -55q-121 -29 -177 -72q-57 -45 -57 -121z" />
<glyph unicode="&#xe3;" d="M66 295q0 90 40.5 159.5t117.5 115.5t160 78t197.5 50.5t198.5 26.5t193 14v49q0 143 -285 144q-262 0 -297 -146h-264q72 350 559 351q111 0 197 -15.5t142 -38t96 -60.5t59.5 -69.5t31 -79t13.5 -76t2 -71.5v-549q0 -139 20 -178h-260q-14 66 -14 111 q-256 -147 -481 -148q-63 0 -129 14.5t-136.5 49t-115.5 103.5t-45 165zM344 307q0 -67 45 -106q47 -41 139 -41q207 0 445 143v252q-201 -8 -395 -55q-121 -29 -177 -72q-57 -45 -57 -121zM350 1274q0 98 56 166q61 72 157 71q45 0 135 -38q86 -41 115 -41q86 0 86 92h119 q0 -16 -4 -40t-18.5 -59.5t-36 -64.5t-61.5 -50.5t-91 -21.5q-55 0 -145 39q-94 37 -123 37q-35 0 -52.5 -27.5t-17.5 -62.5h-119z" />
<glyph unicode="&#xe4;" d="M66 295q0 90 40.5 159.5t117.5 115.5t160 78t197.5 50.5t198.5 26.5t193 14v49q0 143 -285 144q-262 0 -297 -146h-264q72 350 559 351q111 0 197 -15.5t142 -38t96 -60.5t59.5 -69.5t31 -79t13.5 -76t2 -71.5v-549q0 -139 20 -178h-260q-14 66 -14 111 q-256 -147 -481 -148q-63 0 -129 14.5t-136.5 49t-115.5 103.5t-45 165zM344 307q0 -67 45 -106q47 -41 139 -41q207 0 445 143v252q-201 -8 -395 -55q-121 -29 -177 -72q-57 -45 -57 -121zM381 1300v226h229v-226h-229zM758 1300v226h229v-226h-229z" />
<glyph unicode="&#xe5;" d="M66 295q0 90 40.5 159.5t117.5 115.5t160 78t197.5 50.5t198.5 26.5t193 14v49q0 143 -285 144q-262 0 -297 -146h-264q72 350 559 351q111 0 197 -15.5t142 -38t96 -60.5t59.5 -69.5t31 -79t13.5 -76t2 -71.5v-549q0 -139 20 -178h-260q-14 66 -14 111 q-256 -147 -481 -148q-63 0 -129 14.5t-136.5 49t-115.5 103.5t-45 165zM344 307q0 -67 45 -106q47 -41 139 -41q207 0 445 143v252q-201 -8 -395 -55q-121 -29 -177 -72q-57 -45 -57 -121zM434 1507.5q0 102.5 74 176t176 73.5t176 -73.5t74 -176t-74 -176.5t-176 -74 t-176 74t-74 176.5zM563 1507.5q0 -51.5 35 -86.5t86 -35t86 35t35 86.5t-35 86t-86 34.5t-86 -34.5t-35 -86z" />
<glyph unicode="&#xe6;" horiz-adv-x="2048" d="M43 307q0 106 59.5 187t146.5 126.5t203.5 74t211 36.5t190.5 8v52q0 141 -246 141q-207 0 -258 -139h-258q0 37 26.5 89t82 112.5t166 101.5t254.5 41q266 0 413 -148q164 147 357 148q160 0 279.5 -53.5t189 -147.5t102.5 -208t33 -249h-887q0 -45 12.5 -91t44 -99 t102 -87t173.5 -34q76 0 134 30.5t78.5 57.5t47.5 72h278q-133 -365 -559 -365q-129 0 -232.5 36t-143 67.5t-87.5 78.5q-125 -84 -245.5 -131t-274.5 -47q-199 0 -296 102.5t-97 237.5zM315 313q0 -78 54.5 -113.5t136.5 -35.5q150 0 352 143v252q-68 -2 -144.5 -12 t-175 -35t-161 -76t-62.5 -123zM1108 676h608q0 109 -85 182.5t-210 73.5q-145 0 -229 -84t-84 -172z" />
<glyph unicode="&#xe7;" horiz-adv-x="1363" d="M66 578q0 244 171 401.5t447 157.5q248 0 402.5 -107.5t191.5 -308.5h-254q-27 86 -111 142.5t-213 56.5q-162 0 -269 -97.5t-107 -251.5q0 -160 99 -275.5t232 -115.5q152 0 238 52.5t139 160.5h266q-51 -205 -202.5 -312.5t-354.5 -117.5l-65 -86l4 -4q27 10 76 10 q61 0 111.5 -43t50.5 -112q0 -102 -78 -154.5t-184.5 -52.5t-200.5 47l39 102q76 -35 141 -35q51 0 83 21.5t32 58.5q0 80 -93 80q-39 0 -82 -16l-45 37l111 147q-119 8 -220.5 47t-182 112t-126.5 189.5t-46 266.5z" />
<glyph unicode="&#xe8;" d="M72 553q0 248 159.5 416t450.5 168q303 -2 457.5 -177.5t154.5 -480.5h-964q43 -299 362 -311q115 0 195 46t108 116h279q-8 -41 -42 -96.5t-97.5 -120t-177 -107.5t-257.5 -43q-291 0 -459.5 164t-168.5 426zM338 676h686q-53 256 -348 256q-277 0 -338 -256zM354 1552 h285l223 -292h-180z" />
<glyph unicode="&#xe9;" d="M72 553q0 248 159.5 416t450.5 168q303 -2 457.5 -177.5t154.5 -480.5h-964q43 -299 362 -311q115 0 195 46t108 116h279q-8 -41 -42 -96.5t-97.5 -120t-177 -107.5t-257.5 -43q-291 0 -459.5 164t-168.5 426zM338 676h686q-53 256 -348 256q-277 0 -338 -256zM506 1260 l221 292h287l-328 -292h-180z" />
<glyph unicode="&#xea;" d="M72 553q0 248 159.5 416t450.5 168q303 -2 457.5 -177.5t154.5 -480.5h-964q43 -299 362 -311q115 0 195 46t108 116h279q-8 -41 -42 -96.5t-97.5 -120t-177 -107.5t-257.5 -43q-291 0 -459.5 164t-168.5 426zM326 1260l243 292h228l245 -292h-211l-147 182l-154 -182 h-204zM338 676h686q-53 256 -348 256q-277 0 -338 -256z" />
<glyph unicode="&#xeb;" d="M72 553q0 248 159.5 416t450.5 168q303 -2 457.5 -177.5t154.5 -480.5h-964q43 -299 362 -311q115 0 195 46t108 116h279q-8 -41 -42 -96.5t-97.5 -120t-177 -107.5t-257.5 -43q-291 0 -459.5 164t-168.5 426zM338 676h686q-53 256 -348 256q-277 0 -338 -256zM381 1300 v226h229v-226h-229zM758 1300v226h229v-226h-229z" />
<glyph unicode="&#xec;" horiz-adv-x="569" d="M-45 1552h285l223 -292h-180zM158 0v1100h254v-1100h-254z" />
<glyph unicode="&#xed;" horiz-adv-x="569" d="M106 1260l222 292h286l-327 -292h-181zM158 0v1100h254v-1100h-254z" />
<glyph unicode="&#xee;" horiz-adv-x="569" d="M-74 1260l244 292h227l246 -292h-211l-147 182l-154 -182h-205zM158 0v1100h254v-1100h-254z" />
<glyph unicode="&#xef;" horiz-adv-x="569" d="M-18 1300v226h229v-226h-229zM158 0v1100h254v-1100h-254zM358 1300v226h230v-226h-230z" />
<glyph unicode="&#xf0;" horiz-adv-x="1363" d="M66 508q0 225 143 387t414 162q188 0 278 -76l4 4q-104 152 -295 252l-248 -121l-88 86l211 101q-72 41 -188 81l139 142q147 -25 281 -109l221 109l88 -86l-192 -94q465 -272 464 -799q0 -117 -34.5 -218.5t-105.5 -185.5t-192.5 -132t-283.5 -48q-160 0 -283 46 t-193.5 125t-105 173.5t-34.5 200.5zM338 518.5q0 -147.5 85 -249t259 -101.5t259 101.5t85 249t-85 246.5t-259 99t-259 -99t-85 -246.5z" />
<glyph unicode="&#xf1;" d="M137 0v1100h250v-137q53 51 94 81.5t127 61.5t191 31q430 0 430 -432v-705h-254v610q0 164 -54.5 237t-181.5 73q-94 0 -166.5 -27t-107.5 -56.5t-74 -78.5v-758h-254zM350 1274q0 98 56 166q61 72 157 71q45 0 135 -38q86 -41 115 -41q86 0 86 92h119q0 -16 -4 -40 t-18.5 -59.5t-36 -64.5t-61.5 -50.5t-91 -21.5q-55 0 -145 39q-94 37 -123 37q-35 0 -52.5 -27.5t-17.5 -62.5h-119z" />
<glyph unicode="&#xf2;" horiz-adv-x="1363" d="M66 551q0 115 35.5 217t107.5 186t193.5 133.5t279.5 49.5t279.5 -49.5t193.5 -133.5t107.5 -186t35.5 -217q0 -158 -53 -275.5t-143 -183t-195.5 -97.5t-224.5 -32t-224.5 32t-195.5 97.5t-143 183t-53 275.5zM324 555q0 -176 94 -275.5t264 -99.5t264 99.5t94 275.5 q0 182 -101 273.5t-257 91.5q-158 0 -258 -91.5t-100 -273.5zM352 1552h285l223 -292h-180z" />
<glyph unicode="&#xf3;" horiz-adv-x="1363" d="M66 551q0 115 35.5 217t107.5 186t193.5 133.5t279.5 49.5t279.5 -49.5t193.5 -133.5t107.5 -186t35.5 -217q0 -158 -53 -275.5t-143 -183t-195.5 -97.5t-224.5 -32t-224.5 32t-195.5 97.5t-143 183t-53 275.5zM324 555q0 -176 94 -275.5t264 -99.5t264 99.5t94 275.5 q0 182 -101 273.5t-257 91.5q-158 0 -258 -91.5t-100 -273.5zM504 1260l221 292h287l-328 -292h-180z" />
<glyph unicode="&#xf4;" horiz-adv-x="1363" d="M66 551q0 115 35.5 217t107.5 186t193.5 133.5t279.5 49.5t279.5 -49.5t193.5 -133.5t107.5 -186t35.5 -217q0 -158 -53 -275.5t-143 -183t-195.5 -97.5t-224.5 -32t-224.5 32t-195.5 97.5t-143 183t-53 275.5zM324 555q0 -176 94 -275.5t264 -99.5t264 99.5t94 275.5 q0 182 -101 273.5t-257 91.5q-158 0 -258 -91.5t-100 -273.5zM324 1260l243 292h228l245 -292h-211l-147 182l-154 -182h-204z" />
<glyph unicode="&#xf5;" horiz-adv-x="1363" d="M66 551q0 115 35.5 217t107.5 186t193.5 133.5t279.5 49.5t279.5 -49.5t193.5 -133.5t107.5 -186t35.5 -217q0 -158 -53 -275.5t-143 -183t-195.5 -97.5t-224.5 -32t-224.5 32t-195.5 97.5t-143 183t-53 275.5zM324 555q0 -176 94 -275.5t264 -99.5t264 99.5t94 275.5 q0 182 -101 273.5t-257 91.5q-158 0 -258 -91.5t-100 -273.5zM348 1274q0 98 55 166q61 72 158 71q45 0 135 -38q86 -41 115 -41q86 0 86 92h119q0 -16 -4 -40t-18.5 -59.5t-36 -64.5t-61.5 -50.5t-91 -21.5q-55 0 -146 39q-94 37 -122 37q-35 0 -52.5 -27.5t-17.5 -62.5 h-119z" />
<glyph unicode="&#xf6;" horiz-adv-x="1363" d="M66 551q0 115 35.5 217t107.5 186t193.5 133.5t279.5 49.5t279.5 -49.5t193.5 -133.5t107.5 -186t35.5 -217q0 -158 -53 -275.5t-143 -183t-195.5 -97.5t-224.5 -32t-224.5 32t-195.5 97.5t-143 183t-53 275.5zM324 555q0 -176 94 -275.5t264 -99.5t264 99.5t94 275.5 q0 182 -101 273.5t-257 91.5q-158 0 -258 -91.5t-100 -273.5zM379 1300v226h229v-226h-229zM756 1300v226h229v-226h-229z" />
<glyph unicode="&#xf7;" horiz-adv-x="1228" d="M96 420v196h1037v-196h-1037zM442 96.5q0 71.5 51.5 121.5t121 50t120.5 -50t51 -121.5t-51 -122t-120.5 -50.5t-121 50.5t-51.5 122zM442 940q0 72 51.5 122t121 50t120.5 -50t51 -122t-51 -122t-120.5 -50t-121 50t-51.5 122z" />
<glyph unicode="&#xf8;" horiz-adv-x="1363" d="M-41 -145l254 282q-147 154 -147 414q0 115 35.5 217t107.5 186t193.5 133.5t279.5 49.5q209 0 352 -86l142 157h229l-240 -266q133 -158 133 -391q0 -158 -53 -275.5t-143 -183t-195.5 -97.5t-224.5 -32q-195 0 -330 74l-164 -182h-229zM324 555q0 -139 59 -229l491 548 q-84 45 -192 46q-158 0 -258 -91.5t-100 -273.5zM512 215q74 -35 170 -35q170 0 264 99.5t94 275.5q0 119 -45 197z" />
<glyph unicode="&#xf9;" d="M137 395v705h254v-611q0 -164 54.5 -236.5t181.5 -72.5q94 0 166.5 26.5t107.5 56.5t74 79v758h254v-1100h-250v137q-47 -49 -91 -81.5t-130 -62.5t-191 -30q-430 0 -430 432zM354 1552h285l223 -292h-180z" />
<glyph unicode="&#xfa;" d="M137 395v705h254v-611q0 -164 54.5 -236.5t181.5 -72.5q94 0 166.5 26.5t107.5 56.5t74 79v758h254v-1100h-250v137q-47 -49 -91 -81.5t-130 -62.5t-191 -30q-430 0 -430 432zM506 1260l221 292h287l-328 -292h-180z" />
<glyph unicode="&#xfb;" d="M137 395v705h254v-611q0 -164 54.5 -236.5t181.5 -72.5q94 0 166.5 26.5t107.5 56.5t74 79v758h254v-1100h-250v137q-47 -49 -91 -81.5t-130 -62.5t-191 -30q-430 0 -430 432zM326 1260l243 292h228l245 -292h-211l-147 182l-154 -182h-204z" />
<glyph unicode="&#xfc;" d="M137 395v705h254v-611q0 -164 54.5 -236.5t181.5 -72.5q94 0 166.5 26.5t107.5 56.5t74 79v758h254v-1100h-250v137q-47 -49 -91 -81.5t-130 -62.5t-191 -30q-430 0 -430 432zM381 1300v226h229v-226h-229zM758 1300v226h229v-226h-229z" />
<glyph unicode="&#xfd;" d="M29 1100h278l373 -803l373 803h278l-571 -1188q-137 -289 -459 -289q-131 0 -221 33v217q98 -25 156 -25q145 0 211.5 50.5t66.5 121.5q0 80 -45 173zM506 1260l221 292h287l-328 -292h-180z" />
<glyph unicode="&#xfe;" horiz-adv-x="1478" d="M147 -377v1866h254v-504q72 51 114 76.5t126 50.5t182 25q268 0 429 -163t161 -417q0 -270 -168 -432t-411 -162q-104 0 -189.5 24.5t-128.5 50t-115 77.5v-492h-254zM401 340q72 -55 107 -78.5t111.5 -52.5t156.5 -29q158 0 268.5 98.5t110.5 270.5q0 176 -114.5 273.5 t-272.5 97.5q-84 0 -162 -29t-112.5 -52.5t-92.5 -70.5v-428z" />
<glyph unicode="&#xff;" d="M29 1100h278l373 -803l373 803h278l-571 -1188q-137 -289 -459 -289q-131 0 -221 33v217q98 -25 156 -25q145 0 211.5 50.5t66.5 121.5q0 80 -45 173zM381 1300v226h229v-226h-229zM758 1300v226h229v-226h-229z" />
<glyph unicode="&#x152;" horiz-adv-x="2197" d="M80 741q0 336 163 554t466 218q51 0 157 -12q102 -12 158 -12h1087v-250h-716v-346h569v-250h-569v-393h745v-250h-1116q-57 0 -168 -12q-106 -12 -147 -13q-319 0 -474 210t-155 556zM371 748q0 -260 93 -395.5t329 -135.5q98 0 160.5 24.5t92 78t40 110.5t10.5 145v383 q0 68 -10.5 114t-39 94t-95 73t-169.5 25q-411 0 -411 -516z" />
<glyph unicode="&#x153;" horiz-adv-x="2048" d="M43 559q0 147 46 262t125 181.5t173 100.5t201 34q125 0 243.5 -50.5t194.5 -138.5q162 188 420 189q252 0 400.5 -159t148.5 -499h-834q0 -156 91 -233.5t200 -77.5q170 0 246 160h272q-43 -156 -173 -260.5t-359 -104.5q-49 0 -93.5 6t-82.5 21l-66 24q-27 10 -59 34 l-45 33l-43 34l-29 26q-154 -178 -420 -178q-274 0 -415.5 160t-141.5 436zM301 549q0 -162 74 -265.5t225 -103.5q154 0 228.5 105.5t74.5 275.5q0 180 -83 269.5t-220 89.5t-218 -94.5t-81 -276.5zM1171 676h551q-8 127 -80.5 191.5t-199.5 64.5q-244 0 -271 -256z" />
<glyph unicode="&#x178;" horiz-adv-x="1818" d="M37 1489h356l516 -631l514 631h359l-727 -893v-596h-291v596zM606 1638v226h230v-226h-230zM983 1638v226h229v-226h-229z" />
<glyph unicode="&#x2c6;" horiz-adv-x="569" d="M-74 1260l244 292h227l246 -292h-211l-147 182l-154 -182h-205z" />
<glyph unicode="&#x2dc;" horiz-adv-x="569" d="M-49 1274q0 98 55 166q61 72 158 71q45 0 135 -38q86 -41 115 -41q86 0 86 92h118q0 -16 -4 -40t-18 -59.5t-35.5 -64.5t-61.5 -50.5t-91 -21.5q-55 0 -146 39q-94 37 -123 37q-35 0 -52 -27.5t-17 -62.5h-119z" />
<glyph unicode="&#x2000;" horiz-adv-x="1036" />
<glyph unicode="&#x2001;" horiz-adv-x="2074" />
<glyph unicode="&#x2002;" horiz-adv-x="1036" />
<glyph unicode="&#x2003;" horiz-adv-x="2074" />
<glyph unicode="&#x2004;" horiz-adv-x="690" />
<glyph unicode="&#x2005;" horiz-adv-x="518" />
<glyph unicode="&#x2006;" horiz-adv-x="344" />
<glyph unicode="&#x2007;" horiz-adv-x="344" />
<glyph unicode="&#x2008;" horiz-adv-x="258" />
<glyph unicode="&#x2009;" horiz-adv-x="413" />
<glyph unicode="&#x200a;" horiz-adv-x="114" />
<glyph unicode="&#x2010;" horiz-adv-x="681" d="M90 471v217h502v-217h-502z" />
<glyph unicode="&#x2011;" horiz-adv-x="681" d="M90 471v217h502v-217h-502z" />
<glyph unicode="&#x2012;" horiz-adv-x="681" d="M90 471v217h502v-217h-502z" />
<glyph unicode="&#x2013;" horiz-adv-x="1024" d="M0 489v181h1024v-181h-1024z" />
<glyph unicode="&#x2014;" horiz-adv-x="2048" d="M0 489v181h2048v-181h-2048z" />
<glyph unicode="&#x2018;" horiz-adv-x="569" d="M150 883v301l129 305h135l-111 -315h119v-291h-272z" />
<glyph unicode="&#x2019;" horiz-adv-x="569" d="M147 1198v291h273v-301l-129 -305h-135l110 315h-119z" />
<glyph unicode="&#x201a;" horiz-adv-x="569" d="M147 0v291h273v-301l-129 -305h-135l110 315h-119z" />
<glyph unicode="&#x201c;" horiz-adv-x="909" d="M90 883v301l129 305h135l-110 -315h118v-291h-272zM547 883v301l129 305h135l-111 -315h119v-291h-272z" />
<glyph unicode="&#x201d;" horiz-adv-x="909" d="M90 1198v291h272v-301l-129 -305h-135l111 315h-119zM547 1198v291h272v-301l-129 -305h-135l111 315h-119z" />
<glyph unicode="&#x201e;" horiz-adv-x="909" d="M90 0v291h272v-301l-129 -305h-135l111 315h-119zM547 0v291h272v-301l-129 -305h-135l111 315h-119z" />
<glyph unicode="&#x2022;" horiz-adv-x="1024" d="M139 745.5q0 155.5 108.5 264t264.5 108.5t264.5 -108.5t108.5 -264t-108.5 -264t-264.5 -108.5t-264.5 108.5t-108.5 264z" />
<glyph unicode="&#x2026;" horiz-adv-x="2048" d="M207 0v291h272v-291h-272zM889 0v291h272v-291h-272zM1571 0v291h272v-291h-272z" />
<glyph unicode="&#x202f;" horiz-adv-x="413" />
<glyph unicode="&#x2039;" horiz-adv-x="569" d="M25 545l245 338h250l-246 -338l246 -338h-254z" />
<glyph unicode="&#x203a;" horiz-adv-x="569" d="M49 207l246 338l-246 338h254l242 -338l-246 -338h-250z" />
<glyph unicode="&#x205f;" horiz-adv-x="518" />
<glyph unicode="&#x20ac;" horiz-adv-x="1478" d="M8 514l74 180h113q0 2 -2.5 31t-2.5 43q0 37 5 66h-187l74 180h137q43 229 221 370.5t486 141.5q156 0 286 -41q127 -39 228 -113l-101 -250q-98 88 -221 131q-111 39 -221 39q-172 0 -274 -86q-51 -45 -86 -108q-20 -39 -33 -84h790l-71 -180h-756q-4 -29 -4 -74 q0 -37 4 -66h698l-71 -180h-600q23 -131 120 -221q104 -96 273 -96q43 0 86 6q68 10 135 35q145 51 266 155v-305q-115 -68 -225 -96q-115 -29 -256 -29q-330 0 -516 211q-125 139 -160 340h-209z" />
<glyph unicode="&#x2122;" horiz-adv-x="2048" d="M115 1346v143h680v-143h-252v-701h-176v701h-252zM983 645v844h254l223 -580l219 580h254v-844h-168v639h-4l-239 -639h-127l-240 639h-4v-639h-168z" />
<glyph unicode="&#xe000;" horiz-adv-x="1100" d="M0 1100h1100v-1100h-1100v1100z" />
<glyph unicode="&#xfb01;" horiz-adv-x="1478" d="M-12 846v217h205v127q0 336 432 336q98 0 274 -33v-217q-127 29 -223 33h-20q-210 0 -210 -170v-76h396v-217h-396v-846h-253v846h-205zM1067 0v1100h254v-1100h-254zM1067 1300v226h254v-226h-254z" />
<glyph unicode="&#xfb02;" horiz-adv-x="1478" d="M-12 846v217h205v127q0 336 432 336q98 0 274 -33v-217q-127 29 -223 33h-20q-210 0 -210 -170v-76h396v-217h-396v-846h-253v846h-205zM1067 0v1489h254v-1489h-254z" />
<glyph unicode="&#xfb03;" horiz-adv-x="2617" d="M37 846v217h244v127q0 336 432 336q98 0 274 -33v-217q-127 29 -223 33h-20q-210 0 -209 -170v-76h395v-217h-395v-846h-254v846h-244zM1061 846v217h244v127q0 336 432 336q98 0 274 -33v-217q-127 29 -223 33h-20q-210 0 -209 -170v-76h395v-217h-395v-846h-254v846 h-244zM2206 0v1100h254v-1100h-254zM2206 1300v226h254v-226h-254z" />
<glyph unicode="&#xfb04;" horiz-adv-x="2617" d="M37 846v217h244v127q0 336 432 336q98 0 274 -33v-217q-127 29 -223 33h-20q-210 0 -209 -170v-76h395v-217h-395v-846h-254v846h-244zM1061 846v217h244v127q0 336 432 336q98 0 274 -33v-217q-127 29 -223 33h-20q-210 0 -209 -170v-76h395v-217h-395v-846h-254v846 h-244zM2206 0v1489h254v-1489h-254z" />
</font>
</defs>
</svg>
